<svg width="24" height="24" viewBox="0 0 24 24" fill="none" xmlns="http://www.w3.org/2000/svg">
<path opacity="0.2" d="M19.5938 7.59375L16.5 10.5L19.5 18.75L17.25 21L12.75 14.25L10.5 16.5V18.75L8.25 21L6.75 17.25L3 15.75L5.25 13.5H7.5L9.75 11.25L3 6.75L5.25 4.5L13.5 7.5L16.4062 4.40625C16.8289 3.98356 17.4022 3.74609 18 3.74609C18.5978 3.74609 19.1711 3.98356 19.5938 4.40625C20.0164 4.82894 20.2539 5.40222 20.2539 6C20.2539 6.59777 20.0164 7.17106 19.5938 7.59375Z" fill="#EF5F4C"/>
<path d="M17.3747 10.7072L20.1066 8.13562L20.1225 8.12062C20.6852 7.55795 21.0013 6.7948 21.0013 5.99906C21.0013 5.20332 20.6852 4.44017 20.1225 3.8775C19.5598 3.31482 18.7967 2.99872 18.0009 2.99872C17.2052 2.99872 16.4421 3.31482 15.8794 3.8775L15.8644 3.89344L13.2928 6.62531L5.51157 3.79406C5.37746 3.74528 5.23221 3.73578 5.09289 3.76667C4.95356 3.79755 4.82594 3.86755 4.72501 3.96844L2.47501 6.21844C2.3966 6.2969 2.33658 6.39178 2.29926 6.49624C2.26195 6.6007 2.24826 6.71214 2.2592 6.82252C2.27014 6.93291 2.30543 7.03949 2.36253 7.13459C2.41962 7.22969 2.4971 7.31095 2.58938 7.3725L8.57907 11.3653L7.18969 12.75H5.25001C5.05136 12.7501 4.86086 12.829 4.72032 12.9694L2.47032 15.2194C2.38257 15.3069 2.31788 15.4148 2.28204 15.5335C2.2462 15.6521 2.24032 15.7778 2.26493 15.8993C2.28955 16.0208 2.34388 16.1342 2.42307 16.2296C2.50227 16.3249 2.60386 16.3991 2.71876 16.4456L6.17063 17.8266L7.54876 21.2719L7.55438 21.2869C7.60206 21.4023 7.67779 21.504 7.77471 21.5827C7.87164 21.6614 7.98668 21.7147 8.10941 21.7377C8.23214 21.7607 8.35867 21.7527 8.47752 21.7144C8.59637 21.6761 8.70378 21.6087 8.79001 21.5184L11.0278 19.2797C11.0978 19.2103 11.1535 19.1278 11.1916 19.037C11.2298 18.9461 11.2496 18.8486 11.25 18.75V16.8103L12.6338 15.4266L16.6266 21.4162C16.6881 21.5085 16.7694 21.586 16.8645 21.6431C16.9596 21.7002 17.0662 21.7355 17.1765 21.7464C17.2869 21.7574 17.3984 21.7437 17.5028 21.7064C17.6073 21.6691 17.7022 21.609 17.7806 21.5306L20.0306 19.2806C20.1315 19.1797 20.2015 19.0521 20.2324 18.9127C20.2633 18.7734 20.2538 18.6282 20.205 18.4941L17.3747 10.7072ZM17.3681 19.8225L13.3753 13.8328C13.314 13.74 13.2328 13.662 13.1376 13.6044C13.0425 13.5469 12.9357 13.5112 12.825 13.5C12.8003 13.4986 12.7756 13.4986 12.7509 13.5C12.6524 13.4999 12.5549 13.5193 12.4638 13.5569C12.3728 13.5945 12.29 13.6497 12.2203 13.7194L9.97032 15.9694C9.90052 16.039 9.84514 16.1217 9.80734 16.2128C9.76953 16.3038 9.75005 16.4014 9.75001 16.5V18.4397L8.52469 19.665L7.44657 16.9687C7.40885 16.8751 7.35262 16.7901 7.28126 16.7187C7.2099 16.6474 7.12486 16.5912 7.03126 16.5534L4.33688 15.4753L5.56126 14.25H7.50001C7.59853 14.2501 7.6961 14.2307 7.78714 14.1931C7.87819 14.1555 7.96093 14.1002 8.03063 14.0306L10.2806 11.7806C10.3592 11.7022 10.4194 11.6072 10.4568 11.5027C10.4942 11.3981 10.5079 11.2865 10.497 11.176C10.4861 11.0655 10.4507 10.9588 10.3935 10.8636C10.3363 10.7685 10.2587 10.6872 10.1663 10.6256L4.17751 6.63187L5.44313 5.36719L13.245 8.20406C13.3825 8.25457 13.5317 8.26373 13.6743 8.23041C13.8169 8.19709 13.9467 8.12275 14.0475 8.01656L16.9481 4.93406C17.233 4.67316 17.6075 4.5322 17.9937 4.54054C18.3798 4.54888 18.7479 4.70588 19.0212 4.97883C19.2946 5.25178 19.452 5.61965 19.4609 6.00582C19.4697 6.39199 19.3293 6.76668 19.0688 7.05187L15.9872 9.9525C15.881 10.0533 15.8067 10.1831 15.7733 10.3257C15.74 10.4683 15.7492 10.6175 15.7997 10.755L18.6366 18.5569L17.3681 19.8225Z" fill="#EF5F4C"/>
</svg>
