<svg width="32" height="32" viewBox="0 0 32 32" fill="none" xmlns="http://www.w3.org/2000/svg">
<path d="M25.5306 24.4694L20.8365 19.7763C22.1971 18.1429 22.8755 16.0478 22.7307 13.9269C22.5859 11.8061 21.629 9.82268 20.0591 8.38935C18.4892 6.95602 16.4271 6.18311 14.3019 6.23141C12.1766 6.27971 10.1518 7.1455 8.64864 8.64867C7.14547 10.1518 6.27968 12.1767 6.23138 14.3019C6.18308 16.4272 6.95599 18.4892 8.38932 20.0591C9.82265 21.629 11.806 22.5859 13.9269 22.7307C16.0478 22.8755 18.1428 22.1971 19.7762 20.8366L24.4693 25.5306C24.539 25.6003 24.6218 25.6556 24.7128 25.6933C24.8038 25.731 24.9014 25.7504 25 25.7504C25.0985 25.7504 25.1961 25.731 25.2871 25.6933C25.3782 25.6556 25.4609 25.6003 25.5306 25.5306C25.6003 25.4609 25.6556 25.3782 25.6933 25.2872C25.731 25.1961 25.7504 25.0985 25.7504 25C25.7504 24.9015 25.731 24.8039 25.6933 24.7128C25.6556 24.6218 25.6003 24.5391 25.5306 24.4694ZM7.74997 14.5C7.74997 13.165 8.14585 11.8599 8.88755 10.7499C9.62925 9.63987 10.6835 8.77471 11.9169 8.26381C13.1503 7.75292 14.5075 7.61925 15.8168 7.8797C17.1262 8.14015 18.3289 8.78303 19.2729 9.72703C20.2169 10.671 20.8598 11.8738 21.1203 13.1831C21.3807 14.4925 21.2471 15.8497 20.7362 17.0831C20.2253 18.3165 19.3601 19.3707 18.2501 20.1124C17.14 20.8541 15.835 21.25 14.5 21.25C12.7104 21.248 10.9946 20.5362 9.72919 19.2708C8.46375 18.0053 7.75196 16.2896 7.74997 14.5Z" fill="#6C6C6C"/>
</svg>
